<?xml version="1.0" encoding="UTF-8"?>
<svg width="100" height="100" viewBox="0 0 100 100" xmlns="http://www.w3.org/2000/svg">
  <!-- Outer Ring -->
  <circle 
    cx="50" 
    cy="50" 
    r="45" 
    fill="none" 
    stroke="url(#gradient1)" 
    stroke-width="3"
  />
  
  <!-- Inner Circle -->
  <circle 
    cx="50" 
    cy="50" 
    r="35" 
    fill="url(#gradient2)" 
  />
  
  <!-- Letter 'B' -->
  <path 
    d="M35 25 L35 75 L55 75 Q65 75 65 65 Q65 55 58 50 Q65 45 65 35 Q65 25 55 25 Z M42 32 L55 32 Q58 32 58 35 Q58 38 55 38 L42 38 Z M42 45 L55 45 Q58 45 58 50 Q58 55 55 55 L42 55 Z" 
    fill="white" 
  />
  
  <!-- Gradient Definitions -->
  <defs>
    <linearGradient id="gradient1" x1="0%" y1="0%" x2="100%" y2="100%">
      <stop offset="0%" stop-color="#60a5fa" />
      <stop offset="50%" stop-color="#3b82f6" />
      <stop offset="100%" stop-color="#1d4ed8" />
    </linearGradient>
    <linearGradient id="gradient2" x1="0%" y1="0%" x2="100%" y2="100%">
      <stop offset="0%" stop-color="#3b82f6" />
      <stop offset="100%" stop-color="#1e40af" />
    </linearGradient>
  </defs>
</svg> 