<svg xmlns="http://www.w3.org/2000/svg" version="1.1" xmlns:xlink="http://www.w3.org/1999/xlink" width="100" height="100"><svg width="100" height="100" viewBox="0 0 100 100" xmlns="http://www.w3.org/2000/svg">
  <!-- Outer Ring -->
  <circle cx="50" cy="50" r="45" fill="none" stroke="url(#gradient1)" stroke-width="3"></circle>
  
  <!-- Inner Circle -->
  <circle cx="50" cy="50" r="35" fill="url(#gradient2)"></circle>
  
  <!-- Letter 'B' -->
  <path d="M35 25 L35 75 L55 75 Q65 75 65 65 Q65 55 58 50 Q65 45 65 35 Q65 25 55 25 Z M42 32 L55 32 Q58 32 58 35 Q58 38 55 38 L42 38 Z M42 45 L55 45 Q58 45 58 50 Q58 55 55 55 L42 55 Z" fill="white"></path>
  
  <!-- Gradient Definitions -->
  <defs>
    <linearGradient id="SvgjsLinearGradient1003" x1="0%" y1="0%" x2="100%" y2="100%">
      <stop offset="0%" stop-color="#60a5fa"></stop>
      <stop offset="50%" stop-color="#a855f7"></stop>
      <stop offset="100%" stop-color="#ec4899"></stop>
    </linearGradient>
    <linearGradient id="SvgjsLinearGradient1002" x1="0%" y1="0%" x2="100%" y2="100%">
      <stop offset="0%" stop-color="#3b82f6"></stop>
      <stop offset="100%" stop-color="#8b5cf6"></stop>
    </linearGradient>
  </defs>
</svg><style>@media (prefers-color-scheme: light) { :root { filter: none; } }
@media (prefers-color-scheme: dark) { :root { filter: none; } }
</style></svg>